<?xml version="1.0" encoding="UTF-8"?>
<svg id="_1080_x_1080_px_Logo_Set_2" data-name="1080 x 1080 px Logo Set 2" xmlns="http://www.w3.org/2000/svg" viewBox="0 0 500 500">
  <defs>
    <style>
      .cls-1 {
        fill: #425e78;
      }

      .cls-2 {
        fill: #7493aa;
      }
    </style>
  </defs>
  <g id="Layer_18" data-name="Layer 18">
    <g>
      <path class="cls-2" d="M71.89,64.01h76.24c17.73,0,31.21,3.84,40.42,11.51,9.21,7.67,13.81,18.34,13.81,31.98,0,8.53-2.05,16.04-6.14,22.51-4.09,6.48-9.81,11.6-17.14,15.35-6.33,3.24-13.62,5.07-21.85,5.52l132.79,132.79v-75.37h86.35c12.62,0,23.54,1.79,32.75,5.37,9.21,3.58,16.28,8.79,21.23,15.61,4.94,6.83,7.42,15.01,7.42,24.56,0,10.24-2.3,19.02-6.91,26.35-4.61,7.34-11.26,12.88-19.95,16.63-8.7,3.76-19.37,5.63-31.98,5.63h-70.13l60.86,60.86h6.73c20.47,0,47.49-5.12,64.04-15.35,16.54-10.23,29.76-23.96,39.66-41.19,9.89-17.22,14.84-30.9,14.84-52.39s-4.95-34.56-14.84-51.62c-9.9-17.05-23.11-27.68-39.66-37.58-16.55-9.89-43.58-14.84-64.04-14.84h-129.67c2.03-2.06,3.99-4.21,5.78-6.52,10.57-13.64,15.86-30.36,15.86-50.14s-4.18-35.39-12.54-48.87c-8.36-13.47-20.64-23.62-36.84-30.44-16.21-6.82-36.07-10.23-59.61-10.23H10.49l61.4,61.4v-1.53Z"/>
      <path class="cls-1" d="M288.56,302.86v-7.33l-144.12-144.12h-74.01v-74.01L5.45,12.41v350.31h157.6c18.75,0,35.64-2.3,50.65-6.91,2.86-.88,5.63-1.86,8.34-2.89v141.79h66.52v-130.99h68.2l-60.86-60.86h-7.33ZM211.91,280.6c-4.61,7.34-11.26,12.88-19.95,16.63-8.7,3.76-19.37,5.63-31.98,5.63h-89.54v-94.15h86.98c12.62,0,23.54,1.79,32.75,5.37,9.21,3.58,16.28,8.79,21.23,15.61,4.94,6.83,7.42,15.01,7.42,24.56,0,10.24-2.3,19.02-6.91,26.35Z"/>
    </g>
    <polygon class="cls-1" points="368.9 363.14 357.02 363.14 485.74 492.86 497.18 493.43 368.9 363.14"/>
  </g>
</svg>