<?xml version="1.0" encoding="UTF-8"?>
<svg id="_1080_x_1080_px_Logo_Set_2" data-name="1080 x 1080 px Logo Set 2" xmlns="http://www.w3.org/2000/svg" viewBox="0 0 500 500">
  <defs>
    <style>
      .cls-1 {
        fill: #425e78;
      }

      .cls-2 {
        fill: #c86b38;
      }

      .cls-3 {
        fill: #4a4a4a;
      }

      .cls-4 {
        fill: #7493aa;
      }
    </style>
  </defs>
  <g id="Layer_18" data-name="Layer 18">
    <g>
      <path class="cls-1" d="M141.54,134.01h46.69c10.86,0,19.12,2.35,24.76,7.05,5.64,4.7,8.46,11.23,8.46,19.58,0,5.22-1.25,9.82-3.76,13.79-2.51,3.97-6.01,7.1-10.5,9.4-3.88,1.99-8.34,3.11-13.38,3.38l81.32,81.32v-46.16h50.43c7.73,0,14.41,1.1,20.06,3.29,5.64,2.19,9.97,5.38,13,9.56,3.03,4.18,4.54,9.19,4.54,15.04,0,6.27-1.41,11.65-4.23,16.14-2.82,4.49-6.89,7.89-12.22,10.18-5.33,2.3-11.86,3.45-19.58,3.45h-40.5l37.27,37.27h1.67c12.53,0,29.09-3.13,39.22-9.4,10.13-6.27,18.22-14.67,24.29-25.22,6.06-10.55,9.09-18.92,9.09-32.08s-3.03-21.17-9.09-31.61c-6.06-10.44-14.15-16.95-24.29-23.02-10.14-6.06-26.69-9.09-39.22-9.09h-76.96c1.25-1.26,2.44-2.58,3.54-3.99,6.47-8.35,9.71-18.59,9.71-30.71s-2.56-21.67-7.68-29.93c-5.12-8.25-12.64-14.46-22.56-18.64-9.92-4.18-22.09-6.27-36.51-6.27h-91.18l37.6,37.6v-.94Z"/>
      <path class="cls-4" d="M274.24,280.29v-4.49l-88.26-88.26h-45.32v-45.32l-39.8-39.8v214.53h96.51c11.49,0,21.83-1.41,31.02-4.23,1.75-.54,3.45-1.14,5.11-1.77v86.83h40.74v-80.22h41.77l-37.27-37.27h-4.49ZM227.3,266.66c-2.82,4.49-6.89,7.89-12.22,10.18-5.33,2.3-11.86,3.45-19.58,3.45h-54.84v-57.66h53.27c7.73,0,14.41,1.1,20.06,3.29,5.64,2.19,9.97,5.38,13,9.56,3.03,4.18,4.54,9.19,4.54,15.04,0,6.27-1.41,11.65-4.23,16.14Z"/>
      <path class="cls-3" d="M250,498C112.7,498,.99,386.3.99,249h16.11c0,128.41,104.47,232.89,232.89,232.89v16.11Z"/>
      <path class="cls-3" d="M499,249h-16.11c0-128.41-104.47-232.89-232.89-232.89V0C387.3,0,499,111.7,499,249Z"/>
      <polygon class="cls-2" points="321.35 317.31 318.36 317.31 447.3 446.25 448.8 444.75 321.35 317.31"/>
      <polygon class="cls-2" points="101.4 97.35 53.54 49.5 52.04 51 100.86 99.81 100.86 97.35 101.4 97.35"/>
    </g>
  </g>
</svg>